{
  "asset": {
    "generator": "Khronos glTF Blender I/O v4.1.63",
    "version": "2.0"
  },
  "extensionsUsed": [
    "KHR_materials_specular"
  ],
  "scene": 0,
  "scenes": [
    {
      "name": "Scene",
      "nodes": [
        76
      ]
    }
  ],
  "nodes": [
    {
      "name": "mixamorig:Head_end",
      "rotation": [
        1.907771579601203e-10,
        -6.273200200882066e-24,
        -5.999842738334569e-17,
        1
      ],
      "scale": [
        1,
        1.0000001192092896,
        1
      ],
      "translation": [
        2.6645352591003757e-14,
        86.77806091308594,
        3.3396643228655876e-9
      ]
    },
    {
      "children": [
        0
      ],
      "name": "mixamorig:Head",
      "rotation": [
        -9.616080376417813e-9,
        -2.5794527288602183e-23,
        1.6376092956895294e-16,
        1
      ],
      "scale": [
        1,
        1.0000001192092896,
        1
      ],
      "translation": [
        -3.576278970740532e-7,
        18.64533233642578,
        1.669867992401123
      ]
    },
    {
      "children": [
        1
      ],
      "name": "mixamorig:Neck",
      "rotation": [
        0.03751010447740555,
        2.6941635186832655e-16,
        1.0112948868853869e-17,
        0.999296247959137
      ],
      "scale": [
        1,
        1,
        0.9999999403953552
      ],
      "translation": [
        2.3841855067985307e-7,
        17.974023818969727,
        3.5762786865234375e-7
      ]
    },
    {
      "name": "mixamorig:LeftHandThumb4_end",
      "rotation": [
        -1.6763806343078613e-8,
        7.4505797087454084e-9,
        -7.450580596923828e-9,
        1
      ],
      "scale": [
        1,
        0.9999999403953552,
        1.0000001192092896
      ],
      "translation": [
        -0.0000019073486328125,
        3.431574821472168,
        -0.0000035762786865234375
      ]
    },
    {
      "children": [
        3
      ],
      "name": "mixamorig:LeftHandThumb4",
      "rotation": [
        4.0233138065559615e-7,
        0.00000163912784501008,
        0.000001109205186367035,
        1
      ],
      "scale": [
        1,
        1,
        0.9999999403953552
      ],
      "translation": [
        1.1118583679199219,
        3.2464494705200195,
        0.000049948692321777344
      ]
    },
    {
      "children": [
        4
      ],
      "name": "mixamorig:LeftHandThumb3",
      "rotation": [
        -0.17870831489562988,
        -0.0000016508010958204977,
        -9.427739087186637e-7,
        0.983902096748352
      ],
      "scale": [
        0.9999999403953552,
        1.0000001192092896,
        1
      ],
      "translation": [
        -0.24822711944580078,
        5.831025123596191,
        -0.000003337860107421875
      ]
    },
    {
      "children": [
        5
      ],
      "name": "mixamorig:LeftHandThumb2",
      "rotation": [
        -0.0012649308191612363,
        4.116449474622641e-7,
        4.991892978978285e-7,
        0.9999992251396179
      ],
      "scale": [
        1,
        1.0000001192092896,
        0.9999999403953552
      ],
      "translation": [
        -0.8636713027954102,
        6.676072120666504,
        0.000016450881958007812
      ]
    },
    {
      "children": [
        6
      ],
      "name": "mixamorig:LeftHandThumb1",
      "rotation": [
        0.11786527931690216,
        0.05033787339925766,
        0.3895007073879242,
        0.9120652675628662
      ],
      "scale": [
        1,
        1,
        1.0000001192092896
      ],
      "translation": [
        -6.576720237731934,
        4.801409721374512,
        2.121428966522217
      ]
    },
    {
      "name": "mixamorig:LeftHandIndex4_end",
      "rotation": [
        1.6298145055770874e-9,
        3.725290298461914e-9,
        -8.847564458847046e-9,
        1
      ],
      "translation": [
        -6.407499313354492e-7,
        3.3656744956970215,
        -0.000008165836334228516
      ],
      "scale": [
        1,
        1,
        1
      ]
    },
    {
      "children": [
        8
      ],
      "name": "mixamorig:LeftHandIndex4",
      "rotation": [
        -7.536728503509948e-7,
        4.6566133171666024e-9,
        2.3050233721733093e-7,
        1
      ],
      "scale": [
        1,
        1,
        0.9999999403953552
      ],
      "translation": [
        0.002518966794013977,
        3.3657102584838867,
        -0.0000393986701965332
      ]
    },
    {
      "children": [
        9
      ],
      "name": "mixamorig:LeftHandIndex3",
      "rotation": [
        -0.07002391666173935,
        9.896311325974239e-8,
        2.7728344775823643e-7,
        0.9975453019142151
      ],
      "scale": [
        1,
        0.9999999403953552,
        1
      ],
      "translation": [
        -0.0026297718286514282,
        4.931641101837158,
        -0.00004807114601135254
      ]
    },
    {
      "children": [
        10
      ],
      "name": "mixamorig:LeftHandIndex2",
      "rotation": [
        0.03047088161110878,
        4.97324435855262e-7,
        1.1646941544540823e-7,
        0.9995356798171997
      ],
      "scale": [
        0.9999998807907104,
        0.9999999403953552,
        0.9999998807907104
      ],
      "translation": [
        0.00010755658149719238,
        5.271541595458984,
        0.000047147274017333984
      ]
    },
    {
      "children": [
        11
      ],
      "name": "mixamorig:LeftHandIndex1",
      "rotation": [
        -0.00221725320443511,
        -0.0002963422448374331,
        0.13267111778259277,
        0.991157591342926
      ],
      "scale": [
        0.9999998807907104,
        0.9999999403953552,
        1.0000001192092896
      ],
      "translation": [
        -8.545806884765625,
        16.056676864624023,
        0.5543354749679565
      ]
    },
    {
      "name": "mixamorig:LeftHandMiddle4_end",
      "rotation": [
        -1.3504178220102858e-8,
        3.725290298461914e-9,
        -7.450580596923828e-9,
        1
      ],
      "scale": [
        1,
        1,
        0.9999998807907104
      ],
      "translation": [
        -5.513429641723633e-7,
        4.129272937774658,
        0.000007897615432739258
      ]
    },
    {
      "children": [
        13
      ],
      "name": "mixamorig:LeftHandMiddle4",
      "rotation": [
        8.908099857762863e-7,
        -4.838220775127411e-7,
        -2.305023087956215e-7,
        1
      ],
      "scale": [
        1.0000001192092896,
        1.0000001192092896,
        1
      ],
      "translation": [
        0.0005532801151275635,
        4.129260063171387,
        0.000026419758796691895
      ]
    },
    {
      "children": [
        14
      ],
      "name": "mixamorig:LeftHandMiddle3",
      "rotation": [
        -0.040526922792196274,
        8.109169158387886e-8,
        1.621833831677577e-7,
        0.999178409576416
      ],
      "scale": [
        0.9999999403953552,
        1,
        1
      ],
      "translation": [
        -0.0037290602922439575,
        5.635563373565674,
        -0.00006586313247680664
      ]
    },
    {
      "children": [
        15
      ],
      "name": "mixamorig:LeftHandMiddle2",
      "rotation": [
        0.05899640545248985,
        2.4116692998177314e-7,
        2.3790160952330552e-8,
        0.9982582330703735
      ],
      "translation": [
        0.0031699836254119873,
        6.100345611572266,
        0.000019475817680358887
      ],
      "scale": [
        1,
        1,
        1
      ]
    },
    {
      "children": [
        16
      ],
      "name": "mixamorig:LeftHandMiddle1",
      "rotation": [
        -0.04593916982412338,
        -0.003408681834116578,
        0.0739283338189125,
        0.9961990714073181
      ],
      "scale": [
        0.9999999403953552,
        0.9999999403953552,
        1
      ],
      "translation": [
        -2.6372287273406982,
        16.29676628112793,
        -0.3838988244533539
      ]
    },
    {
      "name": "mixamorig:LeftHandRing4_end",
      "rotation": [
        -6.402841812302995e-9,
        -4.656612040410124e-10,
        -2.3283059924494864e-9,
        1
      ],
      "scale": [
        1.0000001192092896,
        1.0000001192092896,
        1.0000001192092896
      ],
      "translation": [
        -3.5762786865234375e-7,
        3.360623359680176,
        -7.338821887969971e-7
      ]
    },
    {
      "children": [
        18
      ],
      "name": "mixamorig:LeftHandRing4",
      "rotation": [
        -5.884794518351555e-7,
        -3.015156480046244e-8,
        3.958120942115784e-9,
        1
      ],
      "scale": [
        1.0000001192092896,
        1,
        1.0000001192092896
      ],
      "translation": [
        0.002333998680114746,
        3.360584020614624,
        -0.00004196539521217346
      ]
    },
    {
      "children": [
        19
      ],
      "name": "mixamorig:LeftHandRing3",
      "rotation": [
        -0.05455109104514122,
        1.657894586060138e-7,
        -3.894070843557529e-8,
        0.9985109567642212
      ],
      "scale": [
        0.9999999403953552,
        1,
        1
      ],
      "translation": [
        -0.002279996871948242,
        5.283601760864258,
        0.000011451542377471924
      ]
    },
    {
      "children": [
        20
      ],
      "name": "mixamorig:LeftHandRing2",
      "rotation": [
        0.020253213122487068,
        -1.292475246827962e-7,
        1.4205583376281083e-8,
        0.9997949004173279
      ],
      "scale": [
        1.0000001192092896,
        0.9999999403953552,
        1
      ],
      "translation": [
        -0.000058770179748535156,
        5.116523742675781,
        -0.00002866610884666443
      ]
    },
    {
      "children": [
        21
      ],
      "name": "mixamorig:LeftHandRing1",
      "rotation": [
        -0.003281237091869116,
        -0.00007745470065856352,
        0.023664887994527817,
        0.9997145533561707
      ],
      "scale": [
        0.9999999403953552,
        1,
        1.0000001192092896
      ],
      "translation": [
        3.002791166305542,
        17.24855613708496,
        -0.3201262354850769
      ]
    },
    {
      "name": "mixamorig:LeftHandPinky4_end",
      "rotation": [
        4.074540704834817e-10,
        -6.984919309616089e-10,
        7.392372491921151e-9,
        1
      ],
      "scale": [
        1,
        1.0000001192092896,
        1
      ],
      "translation": [
        -0.0000013113021850585938,
        2.4483642578125,
        -0.000001959502696990967
      ]
    },
    {
      "children": [
        23
      ],
      "name": "mixamorig:LeftHandPinky4",
      "rotation": [
        -0.000001453736558687524,
        -3.3760443329811096e-8,
        9.89530235528946e-10,
        1
      ],
      "scale": [
        1,
        0.9999999403953552,
        0.9999999403953552
      ],
      "translation": [
        0.0009686946868896484,
        2.448312520980835,
        0.000004380941390991211
      ]
    },
    {
      "children": [
        24
      ],
      "name": "mixamorig:LeftHandPinky3",
      "rotation": [
        -0.13073518872261047,
        3.9454170064345817e-7,
        3.320138830531505e-7,
        0.9914173483848572
      ],
      "translation": [
        -0.0034232139587402344,
        4.253488063812256,
        -0.0000022351741790771484
      ],
      "scale": [
        1,
        1,
        1
      ]
    },
    {
      "children": [
        25
      ],
      "name": "mixamorig:LeftHandPinky2",
      "rotation": [
        -0.0016741739818826318,
        -3.7625483173542307e-7,
        -3.1921126719680615e-7,
        0.9999986290931702
      ],
      "scale": [
        1.0000001192092896,
        1,
        1
      ],
      "translation": [
        0.0024539828300476074,
        4.366415977478027,
        -0.00002440810203552246
      ]
    },
    {
      "children": [
        26
      ],
      "name": "mixamorig:LeftHandPinky1",
      "rotation": [
        0.06142834573984146,
        -0.002444720361381769,
        -0.03968137875199318,
        0.9973194003105164
      ],
      "scale": [
        0.9999999403953552,
        0.9999999403953552,
        1
      ],
      "translation": [
        8.180216789245605,
        16.908676147460938,
        0.24549348652362823
      ]
    },
    {
      "children": [
        7,
        12,
        17,
        22,
        27
      ],
      "name": "mixamorig:LeftHand",
      "rotation": [
        0.06002607196569443,
        0.016574690118432045,
        -0.0919039323925972,
        0.9938188195228577
      ],
      "scale": [
        0.9999998807907104,
        1,
        0.9999998211860657
      ],
      "translation": [
        -0.000008940696716308594,
        19.211036682128906,
        0.00004607066512107849
      ]
    },
    {
      "children": [
        28
      ],
      "name": "mixamorig:LeftForeArm",
      "rotation": [
        0.027924224734306335,
        0.002836623229086399,
        0.10102155059576035,
        0.9944882392883301
      ],
      "scale": [
        0.9999998807907104,
        1,
        0.9999998807907104
      ],
      "translation": [
        0,
        17.049026489257812,
        0.0000063925981521606445
      ]
    },
    {
      "children": [
        29
      ],
      "name": "mixamorig:LeftArm",
      "rotation": [
        -0.09635338187217712,
        0.0010981576051563025,
        -0.011346758343279362,
        0.9952818751335144
      ],
      "scale": [
        0.9999998807907104,
        0.9999997615814209,
        1
      ],
      "translation": [
        4.76837158203125e-7,
        24.67146110534668,
        0.000017344951629638672
      ]
    },
    {
      "children": [
        30
      ],
      "name": "mixamorig:LeftShoulder",
      "rotation": [
        0.5788149833679199,
        0.3984580934047699,
        -0.5980743765830994,
        0.38537171483039856
      ],
      "scale": [
        1.0000001192092896,
        1,
        1
      ],
      "translation": [
        11.736656188964844,
        13.134017944335938,
        -0.38262295722961426
      ]
    },
    {
      "name": "mixamorig:RightHandThumb4_end",
      "rotation": [
        -3.91155481338501e-8,
        -2.2631137142070656e-7,
        -1.6111879119762307e-7,
        1
      ],
      "scale": [
        1.0000001192092896,
        1,
        1
      ],
      "translation": [
        -9.5367431640625e-7,
        3.452455520629883,
        0.000012636184692382812
      ]
    },
    {
      "children": [
        32
      ],
      "name": "mixamorig:RightHandThumb4",
      "rotation": [
        0.0000010682269930839539,
        1.1175870895385742e-8,
        0.000001191161572933197,
        1
      ],
      "scale": [
        1,
        1.0000001192092896,
        1
      ],
      "translation": [
        -1.4448871612548828,
        3.135594367980957,
        0.000033020973205566406
      ]
    },
    {
      "children": [
        33
      ],
      "name": "mixamorig:RightHandThumb3",
      "rotation": [
        -0.08077329397201538,
        5.017597572987142e-7,
        -4.298128146729141e-7,
        0.9967324733734131
      ],
      "scale": [
        1,
        1,
        0.9999999403953552
      ],
      "translation": [
        0.12668418884277344,
        5.794098854064941,
        -0.00005364418029785156
      ]
    },
    {
      "children": [
        34
      ],
      "name": "mixamorig:RightHandThumb2",
      "rotation": [
        0.029286155477166176,
        2.3665748472012638e-7,
        4.6399770781135885e-7,
        0.9995710849761963
      ],
      "scale": [
        0.9999998807907104,
        1,
        0.9999998807907104
      ],
      "translation": [
        1.318211555480957,
        5.723543167114258,
        0.00003075599670410156
      ]
    },
    {
      "children": [
        35
      ],
      "name": "mixamorig:RightHandThumb1",
      "rotation": [
        0.12044967710971832,
        -0.05730592459440231,
        -0.4257667660713196,
        0.8949472308158875
      ],
      "scale": [
        0.9999998211860657,
        0.9999998807907104,
        1
      ],
      "translation": [
        6.39299201965332,
        3.074577808380127,
        1.8914854526519775
      ]
    },
    {
      "name": "mixamorig:RightHandIndex4_end",
      "rotation": [
        -8.731149137020111e-9,
        2.711312845349312e-7,
        1.0989606380462646e-7,
        1
      ],
      "scale": [
        1,
        1,
        1.0000001192092896
      ],
      "translation": [
        0.0000022649765014648438,
        3.30605411529541,
        -0.0000022388994693756104
      ]
    },
    {
      "children": [
        37
      ],
      "name": "mixamorig:RightHandIndex4",
      "rotation": [
        -0.00000195569032257481,
        3.208406553767418e-7,
        2.998858974478935e-7,
        1
      ],
      "scale": [
        0.9999999403953552,
        0.9999998807907104,
        0.9999999403953552
      ],
      "translation": [
        -0.0028789937496185303,
        3.3060009479522705,
        0.000011496245861053467
      ]
    },
    {
      "children": [
        38
      ],
      "name": "mixamorig:RightHandIndex3",
      "rotation": [
        0.04035636782646179,
        -3.018780603269988e-7,
        5.499284227994394e-8,
        0.99918532371521
      ],
      "scale": [
        0.9999998807907104,
        0.9999998807907104,
        1
      ],
      "translation": [
        -0.0006686747074127197,
        5.1549530029296875,
        -0.00003522634506225586
      ]
    },
    {
      "children": [
        39
      ],
      "name": "mixamorig:RightHandIndex2",
      "rotation": [
        0.01722685620188713,
        -6.799664333811961e-7,
        -4.992629669686721e-7,
        0.999851644039154
      ],
      "scale": [
        0.9999998807907104,
        1.0000001192092896,
        0.9999999403953552
      ],
      "translation": [
        0.0035563111305236816,
        5.633852958679199,
        0.00003364682197570801
      ]
    },
    {
      "children": [
        40
      ],
      "name": "mixamorig:RightHandIndex1",
      "rotation": [
        0.0514499805867672,
        -0.007175981532782316,
        -0.13794487714767456,
        0.9890766739845276
      ],
      "scale": [
        0.9999998807907104,
        1,
        1
      ],
      "translation": [
        8.311247825622559,
        12.559041976928711,
        0.2705979347229004
      ]
    },
    {
      "name": "mixamorig:RightHandMiddle4_end",
      "rotation": [
        1.9674187612395144e-8,
        -8.381903171539307e-8,
        -5.448237061500549e-8,
        1
      ],
      "scale": [
        1,
        1,
        1.0000001192092896
      ],
      "translation": [
        0.0000013709068298339844,
        4.315917015075684,
        -0.000004932284355163574
      ]
    },
    {
      "children": [
        42
      ],
      "name": "mixamorig:RightHandMiddle4",
      "rotation": [
        0.0000012459930758268456,
        5.392357707023621e-7,
        2.030283070553196e-7,
        1
      ],
      "scale": [
        1,
        1.0000001192092896,
        1.0000001192092896
      ],
      "translation": [
        0.00032979249954223633,
        4.315911769866943,
        0.000017717480659484863
      ]
    },
    {
      "children": [
        43
      ],
      "name": "mixamorig:RightHandMiddle3",
      "rotation": [
        -0.03392770513892174,
        -5.4979683028477666e-8,
        -1.602797539135281e-7,
        0.9994242787361145
      ],
      "scale": [
        1,
        1.0000001192092896,
        1
      ],
      "translation": [
        0.0032567381858825684,
        5.896343231201172,
        0.000036656856536865234
      ]
    },
    {
      "children": [
        44
      ],
      "name": "mixamorig:RightHandMiddle2",
      "rotation": [
        0.08560819178819656,
        -4.6317069291035295e-7,
        -8.716582300394293e-8,
        0.9963288903236389
      ],
      "scale": [
        1,
        0.9999999403953552,
        1
      ],
      "translation": [
        -0.00357896089553833,
        5.767092227935791,
        0.000004902482032775879
      ]
    },
    {
      "children": [
        45
      ],
      "name": "mixamorig:RightHandMiddle1",
      "rotation": [
        -0.02913602814078331,
        0.002537043299525976,
        -0.08671686798334122,
        0.9958036541938782
      ],
      "scale": [
        0.9999998211860657,
        0.9999998807907104,
        0.9999999403953552
      ],
      "translation": [
        2.655275583267212,
        13.558837890625,
        -0.3211072087287903
      ]
    },
    {
      "name": "mixamorig:RightHandRing4_end",
      "rotation": [
        5.279871402308345e-7,
        -3.0209776014089584e-8,
        1.0593794286251068e-8,
        1
      ],
      "translation": [
        2.384185791015625e-7,
        2.8686201572418213,
        -0.000011876225471496582
      ],
      "scale": [
        1,
        1,
        1
      ]
    },
    {
      "children": [
        47
      ],
      "name": "mixamorig:RightHandRing4",
      "rotation": [
        -9.42163694617193e-7,
        -6.72298412496275e-8,
        6.263144314289093e-8,
        1
      ],
      "scale": [
        1.0000001192092896,
        1,
        1.0000001192092896
      ],
      "translation": [
        0.003605961799621582,
        2.868583917617798,
        -0.000012733042240142822
      ]
    },
    {
      "children": [
        48
      ],
      "name": "mixamorig:RightHandRing3",
      "rotation": [
        0.021221311762928963,
        3.43327883456368e-7,
        -3.691197036914673e-8,
        0.9997748136520386
      ],
      "scale": [
        1,
        0.9999999403953552,
        1
      ],
      "translation": [
        -0.00024133920669555664,
        4.720676422119141,
        0.000020459294319152832
      ]
    },
    {
      "children": [
        49
      ],
      "name": "mixamorig:RightHandRing2",
      "rotation": [
        0.029567424207925797,
        1.5344427595209709e-7,
        -9.084367036393814e-8,
        0.9995627999305725
      ],
      "scale": [
        1,
        0.9999999403953552,
        0.9999999403953552
      ],
      "translation": [
        -0.0033555030822753906,
        5.2577996253967285,
        0.0000043585896492004395
      ]
    },
    {
      "children": [
        50
      ],
      "name": "mixamorig:RightHandRing1",
      "rotation": [
        0.04237309470772743,
        -0.001184256630949676,
        -0.02790107950568199,
        0.9987115263938904
      ],
      "scale": [
        0.9999998211860657,
        1,
        1
      ],
      "translation": [
        -2.998448133468628,
        15.94491958618164,
        -0.41893959045410156
      ]
    },
    {
      "name": "mixamorig:RightHandPinky4_end",
      "rotation": [
        -3.4226104617118835e-8,
        2.4901237338781357e-7,
        1.778826117515564e-7,
        1
      ],
      "translation": [
        2.9802322387695312e-8,
        2.7565550804138184,
        -0.000011146068572998047
      ],
      "scale": [
        1,
        1,
        1
      ]
    },
    {
      "children": [
        52
      ],
      "name": "mixamorig:RightHandPinky4",
      "rotation": [
        0.0000028368085622787476,
        -3.8731371887479327e-7,
        -6.676418706774712e-8,
        1
      ],
      "scale": [
        1.0000001192092896,
        1,
        1.0000001192092896
      ],
      "translation": [
        0.010164231061935425,
        2.756575584411621,
        0.000005602836608886719
      ]
    },
    {
      "children": [
        53
      ],
      "name": "mixamorig:RightHandPinky3",
      "rotation": [
        -0.020188750699162483,
        7.440455078722152e-7,
        -6.177091904646659e-8,
        0.9997962117195129
      ],
      "scale": [
        1,
        1.0000001192092896,
        1.0000001192092896
      ],
      "translation": [
        0.004787176847457886,
        4.171404838562012,
        -0.000027000904083251953
      ]
    },
    {
      "children": [
        54
      ],
      "name": "mixamorig:RightHandPinky2",
      "rotation": [
        0.046481531113386154,
        -3.591802624214324e-7,
        -1.192800027638441e-7,
        0.9989191293716431
      ],
      "scale": [
        1.0000001192092896,
        1,
        1
      ],
      "translation": [
        -0.014940619468688965,
        4.757157802581787,
        0.000028848648071289062
      ]
    },
    {
      "children": [
        55
      ],
      "name": "mixamorig:RightHandPinky1",
      "rotation": [
        0.06764369457960129,
        0.003781376639381051,
        0.05568334460258484,
        0.9961472749710083
      ],
      "scale": [
        0.9999998807907104,
        0.9999998211860657,
        0.9999999403953552
      ],
      "translation": [
        -7.9680585861206055,
        14.324234008789062,
        0.14777350425720215
      ]
    },
    {
      "children": [
        36,
        41,
        46,
        51,
        56
      ],
      "name": "mixamorig:RightHand",
      "rotation": [
        -0.053338516503572464,
        -0.00877557136118412,
        0.11278603225946426,
        0.9921478629112244
      ],
      "scale": [
        0.9999999403953552,
        1,
        1.0000001192092896
      ],
      "translation": [
        0.0000017881393432617188,
        17.868324279785156,
        0.000009201467037200928
      ]
    },
    {
      "children": [
        57
      ],
      "name": "mixamorig:RightForeArm",
      "rotation": [
        0.069150410592556,
        -0.006081681698560715,
        -0.09245225042104721,
        0.9932944178581238
      ],
      "scale": [
        1.0000001192092896,
        1,
        1
      ],
      "translation": [
        -4.76837158203125e-7,
        17.037841796875,
        -0.000008001923561096191
      ]
    },
    {
      "children": [
        58
      ],
      "name": "mixamorig:RightArm",
      "rotation": [
        -0.09556375443935394,
        -0.00009322612459072843,
        0.0009706428390927613,
        0.9954228401184082
      ],
      "scale": [
        1.0000001192092896,
        1,
        1.0000001192092896
      ],
      "translation": [
        0.0000019073486328125,
        24.671485900878906,
        0.000010915100574493408
      ]
    },
    {
      "children": [
        59
      ],
      "name": "mixamorig:RightShoulder",
      "rotation": [
        0.579819917678833,
        -0.3977392613887787,
        0.5971952676773071,
        0.38596659898757935
      ],
      "scale": [
        0.9999999403953552,
        0.9999998211860657,
        0.9999999403953552
      ],
      "translation": [
        -11.736656188964844,
        13.131213188171387,
        -0.3453255891799927
      ]
    },
    {
      "children": [
        2,
        31,
        60
      ],
      "name": "mixamorig:Spine2",
      "rotation": [
        8.195638656616211e-8,
        -7.001843549403475e-10,
        1.8653413036417987e-8,
        1
      ],
      "translation": [
        -3.239322552417434e-7,
        15.976881980895996,
        0.0000017863040966403787
      ],
      "scale": [
        1,
        1,
        1
      ]
    },
    {
      "children": [
        61
      ],
      "name": "mixamorig:Spine1",
      "rotation": [
        -8.195638656616211e-8,
        7.00184243918045e-10,
        -1.8653413036417987e-8,
        1
      ],
      "translation": [
        -1.1920928955078125e-7,
        13.979719161987305,
        0
      ],
      "scale": [
        1,
        1,
        1
      ]
    },
    {
      "children": [
        62
      ],
      "name": "mixamorig:Spine",
      "rotation": [
        -0.03751010075211525,
        0,
        0,
        0.999296247959137
      ],
      "scale": [
        1,
        0.9999998807907104,
        1
      ],
      "translation": [
        0,
        11.948955535888672,
        -0.8983095288276672
      ]
    },
    {
      "name": "mixamorig:LeftToeBase_end",
      "rotation": [
        -3.050081431865692e-8,
        1.4887336874380708e-7,
        1.3751559890806675e-9,
        1
      ],
      "translation": [
        1.7881393432617188e-7,
        7.769343852996826,
        1.6391277313232422e-7
      ],
      "scale": [
        1,
        1,
        1
      ]
    },
    {
      "children": [
        64
      ],
      "name": "mixamorig:LeftToeBase",
      "rotation": [
        0.3347311317920685,
        -0.00613447418436408,
        0.002176058478653431,
        0.9422912001609802
      ],
      "scale": [
        1.0000001192092896,
        0.9999999403953552,
        0.9999999403953552
      ],
      "translation": [
        0.000262431800365448,
        11.810505867004395,
        0.000016808509826660156
      ]
    },
    {
      "children": [
        65
      ],
      "name": "mixamorig:LeftFoot",
      "rotation": [
        0.5009075403213501,
        -0.02620987966656685,
        0.015169474296271801,
        0.864970862865448
      ],
      "scale": [
        0.9999998807907104,
        0.9999998807907104,
        0.9999999403953552
      ],
      "translation": [
        -0.00006659363862127066,
        19.028881072998047,
        -0.000006020069122314453
      ]
    },
    {
      "children": [
        66
      ],
      "name": "mixamorig:LeftLeg",
      "rotation": [
        -0.09315898269414902,
        0.00322139635682106,
        -0.034737300127744675,
        0.9950398802757263
      ],
      "scale": [
        0.9999998807907104,
        0.9999998807907104,
        1
      ],
      "translation": [
        -0.00024479441344738007,
        22.56037712097168,
        9.590585250407457e-7
      ]
    },
    {
      "children": [
        67
      ],
      "name": "mixamorig:LeftUpLeg",
      "rotation": [
        -0.00043062129407189786,
        -0.00904859323054552,
        -0.9987831711769104,
        0.048478249460458755
      ],
      "scale": [
        1.000022530555725,
        1,
        1.0000007152557373
      ],
      "translation": [
        19.23940658569336,
        -6.654212474822998,
        -0.6484746932983398
      ]
    },
    {
      "name": "mixamorig:RightToeBase_end",
      "rotation": [
        -6.402843810704439e-10,
        -8.270581730585036e-8,
        -7.494238007943466e-10,
        1
      ],
      "scale": [
        0.9999999403953552,
        0.9999998211860657,
        0.9999998807907104
      ],
      "translation": [
        0.000003861263394355774,
        7.86043643951416,
        -4.470348358154297e-8
      ]
    },
    {
      "children": [
        69
      ],
      "name": "mixamorig:RightToeBase",
      "rotation": [
        0.3384796977043152,
        0.0035588289611041546,
        -0.0012772470945492387,
        0.9409661293029785
      ],
      "scale": [
        1,
        1,
        0.9999998807907104
      ],
      "translation": [
        0.00043291598558425903,
        11.698776245117188,
        0.000035434961318969727
      ]
    },
    {
      "children": [
        70
      ],
      "name": "mixamorig:RightFoot",
      "rotation": [
        0.48121562600135803,
        0.027957871556282043,
        -0.015348969958722591,
        0.8760218620300293
      ],
      "scale": [
        1,
        1.0000001192092896,
        1.0000001192092896
      ],
      "translation": [
        -0.00017373186710756272,
        18.92234992980957,
        7.450580596923828e-8
      ]
    },
    {
      "children": [
        71
      ],
      "name": "mixamorig:RightLeg",
      "rotation": [
        -0.0573141947388649,
        -0.002034500939771533,
        0.03489834442734718,
        0.9977439641952515
      ],
      "scale": [
        1.0000001192092896,
        1,
        1
      ],
      "translation": [
        0.0002566315233707428,
        22.55963134765625,
        -7.998605724424124e-7
      ]
    },
    {
      "children": [
        72
      ],
      "name": "mixamorig:RightUpLeg",
      "rotation": [
        0.0003839813289232552,
        -0.008085833862423897,
        0.9987913370132446,
        0.04848036542534828
      ],
      "scale": [
        1.0000226497650146,
        0.9999999403953552,
        1.0000005960464478
      ],
      "translation": [
        -19.23940658569336,
        -6.654212474822998,
        -0.40157437324523926
      ]
    },
    {
      "children": [
        63,
        68,
        73
      ],
      "name": "mixamorig:Hips",
      "rotation": [
        -0.7071067690849304,
        0,
        0,
        0.7071067690849304
      ],
      "translation": [
        -1.3105030059814453,
        2.8918933868408203,
        -56.32270050048828
      ],
      "scale": [
        1,
        1,
        1
      ]
    },
    {
      "mesh": 0,
      "name": "Head.001",
      "skin": 0
    },
    {
      "children": [
        75,
        74
      ],
      "name": "Armature",
      "rotation": [
        0.70710688829422,
        0,
        0,
        0.7071066498756409
      ],
      "scale": [
        0.009999999776482582,
        0.009999999776482582,
        0.009999999776482582
      ],
      "translation": [
        0,
        0,
        0
      ]
    }
  ],
  "materials": [
    {
      "doubleSided": true,
      "extensions": {
        "KHR_materials_specular": {
          "specularFactor": 0
        }
      },
      "name": "Skin_",
      "pbrMetallicRoughness": {
        "baseColorFactor": [
          0.800796627998352,
          0.4588249921798706,
          0.3147851228713989,
          1
        ],
        "metallicFactor": 0,
        "roughnessFactor": 1
      },
      "emissiveFactor": [
        0,
        0,
        0
      ],
      "alphaMode": "OPAQUE"
    },
    {
      "doubleSided": true,
      "extensions": {
        "KHR_materials_specular": {
          "specularFactor": 0
        }
      },
      "name": "InsideMouth",
      "pbrMetallicRoughness": {
        "baseColorFactor": [
          0.031010253354907036,
          0,
          0.0006410290370695293,
          1
        ],
        "metallicFactor": 0,
        "roughnessFactor": 1
      },
      "emissiveFactor": [
        0,
        0,
        0
      ],
      "alphaMode": "OPAQUE"
    },
    {
      "doubleSided": true,
      "extensions": {
        "KHR_materials_specular": {
          "specularFactor": 0
        }
      },
      "name": "Teeth",
      "pbrMetallicRoughness": {
        "baseColorFactor": [
          0.800000011920929,
          0.800000011920929,
          0.800000011920929,
          1
        ],
        "metallicFactor": 0,
        "roughnessFactor": 0.5
      },
      "emissiveFactor": [
        0,
        0,
        0
      ],
      "alphaMode": "OPAQUE"
    }
  ],
  "meshes": [
    {
      "extras": {
        "targetNames": [
          "smile",
          "sad",
          "neutral",
          "A",
          "B",
          "C",
          "D",
          "E",
          "F",
          "G",
          "H",
          "X"
        ]
      },
      "name": "Head.001",
      "primitives": [
        {
          "attributes": {
            "POSITION": 0,
            "NORMAL": 1,
            "TEXCOORD_0": 2,
            "JOINTS_0": 3,
            "WEIGHTS_0": 4
          },
          "indices": 5,
          "material": 0,
          "targets": [
            {
              "POSITION": 6,
              "NORMAL": 7
            },
            {
              "POSITION": 8,
              "NORMAL": 9
            },
            {
              "POSITION": 10,
              "NORMAL": 11
            },
            {
              "POSITION": 12,
              "NORMAL": 13
            },
            {
              "POSITION": 14,
              "NORMAL": 15
            },
            {
              "POSITION": 16,
              "NORMAL": 17
            },
            {
              "POSITION": 18,
              "NORMAL": 19
            },
            {
              "POSITION": 20,
              "NORMAL": 21
            },
            {
              "POSITION": 22,
              "NORMAL": 23
            },
            {
              "POSITION": 24,
              "NORMAL": 25
            },
            {
              "POSITION": 26,
              "NORMAL": 27
            },
            {
              "POSITION": 28,
              "NORMAL": 29
            }
          ],
          "mode": 4
        },
        {
          "attributes": {
            "POSITION": 30,
            "NORMAL": 31,
            "TEXCOORD_0": 32,
            "JOINTS_0": 33,
            "WEIGHTS_0": 34
          },
          "indices": 35,
          "material": 1,
          "targets": [
            {
              "POSITION": 36,
              "NORMAL": 37
            },
            {
              "POSITION": 38,
              "NORMAL": 39
            },
            {
              "POSITION": 40,
              "NORMAL": 41
            },
            {
              "POSITION": 42,
              "NORMAL": 43
            },
            {
              "POSITION": 44,
              "NORMAL": 45
            },
            {
              "POSITION": 46,
              "NORMAL": 47
            },
            {
              "POSITION": 48,
              "NORMAL": 49
            },
            {
              "POSITION": 50,
              "NORMAL": 51
            },
            {
              "POSITION": 52,
              "NORMAL": 53
            },
            {
              "POSITION": 54,
              "NORMAL": 55
            },
            {
              "POSITION": 56,
              "NORMAL": 57
            },
            {
              "POSITION": 58,
              "NORMAL": 59
            }
          ],
          "mode": 4
        },
        {
          "attributes": {
            "POSITION": 60,
            "NORMAL": 61,
            "TEXCOORD_0": 62,
            "JOINTS_0": 63,
            "WEIGHTS_0": 64
          },
          "indices": 65,
          "material": 2,
          "targets": [
            {
              "POSITION": 66,
              "NORMAL": 67
            },
            {
              "POSITION": 68,
              "NORMAL": 69
            },
            {
              "POSITION": 70,
              "NORMAL": 71
            },
            {
              "POSITION": 72,
              "NORMAL": 73
            },
            {
              "POSITION": 74,
              "NORMAL": 75
            },
            {
              "POSITION": 76,
              "NORMAL": 77
            },
            {
              "POSITION": 78,
              "NORMAL": 79
            },
            {
              "POSITION": 80,
              "NORMAL": 81
            },
            {
              "POSITION": 82,
              "NORMAL": 83
            },
            {
              "POSITION": 84,
              "NORMAL": 85
            },
            {
              "POSITION": 86,
              "NORMAL": 87
            },
            {
              "POSITION": 88,
              "NORMAL": 89
            }
          ],
          "mode": 4
        }
      ],
      "weights": [
        0,
        0,
        0,
        0,
        0,
        0,
        0,
        0,
        0,
        0,
        0,
        0
      ]
    }
  ],
  "skins": [
    {
      "inverseBindMatrices": 90,
      "joints": [
        74,
        63,
        62,
        61,
        2,
        1,
        0,
        31,
        30,
        29,
        28,
        7,
        6,
        5,
        4,
        3,
        12,
        11,
        10,
        9,
        8,
        17,
        16,
        15,
        14,
        13,
        22,
        21,
        20,
        19,
        18,
        27,
        26,
        25,
        24,
        23,
        60,
        59,
        58,
        57,
        36,
        35,
        34,
        33,
        32,
        41,
        40,
        39,
        38,
        37,
        46,
        45,
        44,
        43,
        42,
        51,
        50,
        49,
        48,
        47,
        56,
        55,
        54,
        53,
        52,
        68,
        67,
        66,
        65,
        64,
        73,
        72,
        71,
        70,
        69
      ],
      "name": "Armature"
    }
  ],
  "accessors": [
    {
      "bufferView": 0,
      "componentType": 5126,
      "count": 2098,
      "max": [
        0.4885576367378235,
        2.127988338470459,
        0.4391048848628998
      ],
      "min": [
        -0.4885576367378235,
        1.2790663242340088,
        -0.3702002167701721
      ],
      "type": "VEC3",
      "byteOffset": 0
    },
    {
      "bufferView": 1,
      "componentType": 5126,
      "count": 2098,
      "type": "VEC3",
      "byteOffset": 0
    },
    {
      "bufferView": 2,
      "componentType": 5126,
      "count": 2098,
      "type": "VEC2",
      "byteOffset": 0
    },
    {
      "bufferView": 3,
      "componentType": 5121,
      "count": 2098,
      "type": "VEC4",
      "byteOffset": 0
    },
    {
      "bufferView": 4,
      "componentType": 5126,
      "count": 2098,
      "type": "VEC4",
      "byteOffset": 0
    },
    {
      "bufferView": 5,
      "componentType": 5123,
      "count": 12012,
      "type": "SCALAR",
      "byteOffset": 0
    },
    {
      "componentType": 5126,
      "count": 2098,
      "max": [
        0,
        0,
        0
      ],
      "min": [
        0,
        0,
        0
      ],
      "sparse": {
        "count": 1,
        "indices": {
          "bufferView": 6,
          "componentType": 5121
        },
        "values": {
          "bufferView": 7
        }
      },
      "type": "VEC3"
    },
    {
      "bufferView": 6,
      "componentType": 5126,
      "count": 2098,
      "type": "VEC3",
      "byteOffset": 0
    },
    {
      "componentType": 5126,
      "count": 2098,
      "max": [
        0.02652871608734131,
        0.00986635684967041,
        0.003377258777618408
      ],
      "min": [
        -0.02652871608734131,
        -0.0528712272644043,
        -2.9802322387695312e-8
      ],
      "sparse": {
        "count": 411,
        "indices": {
          "bufferView": 9,
          "componentType": 5123
        },
        "values": {
          "bufferView": 10
        }
      },
      "type": "VEC3"
    },
    {
      "bufferView": 7,
      "componentType": 5126,
      "count": 2098,
      "type": "VEC3",
      "byteOffset": 0
    },
    {
      "componentType": 5126,
      "count": 2098,
      "max": [
        0.04553106427192688,
        0.00514531135559082,
        0.02862548828125
      ],
      "min": [
        -0.04494866728782654,
        -0.05222749710083008,
        -0.0023821890354156494
      ],
      "sparse": {
        "count": 378,
        "indices": {
          "bufferView": 12,
          "componentType": 5123
        },
        "values": {
          "bufferView": 13
        }
      },
      "type": "VEC3"
    },
    {
      "bufferView": 8,
      "componentType": 5126,
      "count": 2098,
      "type": "VEC3",
      "byteOffset": 0
    },
    {
      "componentType": 5126,
      "count": 2098,
      "max": [
        2.220446049250313e-16,
        0.008539795875549316,
        0.013283997774124146
      ],
      "min": [
        -2.220446049250313e-16,
        -0.024405598640441895,
        -0.006638586521148682
      ],
      "sparse": {
        "count": 197,
        "indices": {
          "bufferView": 15,
          "componentType": 5123
        },
        "values": {
          "bufferView": 16
        }
      },
      "type": "VEC3"
    },
    {
      "bufferView": 9,
      "componentType": 5126,
      "count": 2098,
      "type": "VEC3",
      "byteOffset": 0
    },
    {
      "componentType": 5126,
      "count": 2098,
      "max": [
        2.9802322387695312e-8,
        0.0056116580963134766,
        2.9802322387695312e-8
      ],
      "min": [
        -2.9802322387695312e-8,
        -0.005969047546386719,
        -2.9802322387695312e-8
      ],
      "sparse": {
        "count": 286,
        "indices": {
          "bufferView": 18,
          "componentType": 5123
        },
        "values": {
          "bufferView": 19
        }
      },
      "type": "VEC3"
    },
    {
      "bufferView": 10,
      "componentType": 5126,
      "count": 2098,
      "type": "VEC3",
      "byteOffset": 0
    },
    {
      "componentType": 5126,
      "count": 2098,
      "max": [
        1.4901161193847656e-8,
        0.006260991096496582,
        2.9802322387695312e-8
      ],
      "min": [
        -1.4901161193847656e-8,
        -0.006421566009521484,
        -2.9802322387695312e-8
      ],
      "sparse": {
        "count": 221,
        "indices": {
          "bufferView": 21,
          "componentType": 5123
        },
        "values": {
          "bufferView": 22
        }
      },
      "type": "VEC3"
    },
    {
      "bufferView": 11,
      "componentType": 5126,
      "count": 2098,
      "type": "VEC3",
      "byteOffset": 0
    },
    {
      "componentType": 5126,
      "count": 2098,
      "max": [
        1.4901161193847656e-8,
        0.015202999114990234,
        2.9802322387695312e-8
      ],
      "min": [
        -1.4901161193847656e-8,
        -0.022437453269958496,
        -2.9802322387695312e-8
      ],
      "sparse": {
        "count": 233,
        "indices": {
          "bufferView": 24,
          "componentType": 5123
        },
        "values": {
          "bufferView": 25
        }
      },
      "type": "VEC3"
    },
    {
      "bufferView": 12,
      "componentType": 5126,
      "count": 2098,
      "type": "VEC3",
      "byteOffset": 0
    },
    {
      "bufferView": 13,
      "componentType": 5126,
      "count": 2098,
      "max": [
        0.02480863779783249,
        0.014961481094360352,
        0.02497658133506775
      ],
      "min": [
        -0.024412333965301514,
        -0.030225157737731934,
        0
      ],
      "type": "VEC3",
      "byteOffset": 0
    },
    {
      "bufferView": 14,
      "componentType": 5126,
      "count": 2098,
      "type": "VEC3",
      "byteOffset": 0
    },
    {
      "bufferView": 15,
      "componentType": 5126,
      "count": 2098,
      "max": [
        0.05096390098333359,
        0.03863167762756348,
        0.03743806481361389
      ],
      "min": [
        -0.050183892250061035,
        -0.04727184772491455,
        -0.004033505916595459
      ],
      "type": "VEC3",
      "byteOffset": 0
    },
    {
      "bufferView": 16,
      "componentType": 5126,
      "count": 2098,
      "type": "VEC3",
      "byteOffset": 0
    },
    {
      "componentType": 5126,
      "count": 2098,
      "max": [
        0.005239218473434448,
        0.01937270164489746,
        0.010042041540145874
      ],
      "min": [
        -0.005239218473434448,
        -0.010195612907409668,
        -2.9802322387695312e-8
      ],
      "sparse": {
        "count": 250,
        "indices": {
          "bufferView": 31,
          "componentType": 5123
        },
        "values": {
          "bufferView": 32
        }
      },
      "type": "VEC3"
    },
    {
      "bufferView": 17,
      "componentType": 5126,
      "count": 2098,
      "type": "VEC3",
      "byteOffset": 0
    },
    {
      "bufferView": 18,
      "componentType": 5126,
      "count": 2098,
      "max": [
        0.02480866014957428,
        0.022696733474731445,
        0.02497658133506775
      ],
      "min": [
        -0.024412348866462708,
        -0.030670762062072754,
        0
      ],
      "type": "VEC3",
      "byteOffset": 0
    },
    {
      "bufferView": 19,
      "componentType": 5126,
      "count": 2098,
      "type": "VEC3",
      "byteOffset": 0
    },
    {
      "componentType": 5126,
      "count": 2098,
      "max": [
        2.220446049250313e-16,
        0.008539795875549316,
        0.013283997774124146
      ],
      "min": [
        -2.220446049250313e-16,
        -0.024405598640441895,
        -0.006638586521148682
      ],
      "sparse": {
        "count": 197,
        "indices": {
          "bufferView": 36,
          "componentType": 5123
        },
        "values": {
          "bufferView": 37
        }
      },
      "type": "VEC3"
    },
    {
      "bufferView": 20,
      "componentType": 5126,
      "count": 2098,
      "type": "VEC3",
      "byteOffset": 0
    },
    {
      "bufferView": 21,
      "componentType": 5126,
      "count": 325,
      "max": [
        0.16705532371997833,
        1.5205806493759155,
        0.39418625831604004
      ],
      "min": [
        -0.16705532371997833,
        1.4190596342086792,
        0.2384924441576004
      ],
      "type": "VEC3",
      "byteOffset": 0
    },
    {
      "bufferView": 22,
      "componentType": 5126,
      "count": 325,
      "type": "VEC3",
      "byteOffset": 0
    },
    {
      "bufferView": 23,
      "componentType": 5126,
      "count": 325,
      "type": "VEC2",
      "byteOffset": 0
    },
    {
      "bufferView": 24,
      "componentType": 5121,
      "count": 325,
      "type": "VEC4",
      "byteOffset": 0
    },
    {
      "bufferView": 25,
      "componentType": 5126,
      "count": 325,
      "type": "VEC4",
      "byteOffset": 0
    },
    {
      "bufferView": 26,
      "componentType": 5123,
      "count": 1836,
      "type": "SCALAR",
      "byteOffset": 0
    },
    {
      "componentType": 5126,
      "count": 325,
      "max": [
        0,
        0,
        0
      ],
      "min": [
        0,
        0,
        0
      ],
      "sparse": {
        "count": 1,
        "indices": {
          "bufferView": 45,
          "componentType": 5121
        },
        "values": {
          "bufferView": 46
        }
      },
      "type": "VEC3"
    },
    {
      "bufferView": 27,
      "componentType": 5126,
      "count": 325,
      "type": "VEC3",
      "byteOffset": 0
    },
    {
      "bufferView": 28,
      "componentType": 5126,
      "count": 325,
      "max": [
        0.021077603101730347,
        0.009726881980895996,
        0.001280367374420166
      ],
      "min": [
        -0.021077588200569153,
        -0.04477214813232422,
        -2.9802322387695312e-8
      ],
      "type": "VEC3",
      "byteOffset": 0
    },
    {
      "bufferView": 29,
      "componentType": 5126,
      "count": 325,
      "type": "VEC3",
      "byteOffset": 0
    },
    {
      "bufferView": 30,
      "componentType": 5126,
      "count": 325,
      "max": [
        0.032738544046878815,
        0.018680453300476074,
        0.018349826335906982
      ],
      "min": [
        -0.031820476055145264,
        -0.04433488845825195,
        -2.9802322387695312e-8
      ],
      "type": "VEC3",
      "byteOffset": 0
    },
    {
      "bufferView": 31,
      "componentType": 5126,
      "count": 325,
      "type": "VEC3",
      "byteOffset": 0
    },
    {
      "componentType": 5126,
      "count": 325,
      "max": [
        0,
        0,
        0.009519457817077637
      ],
      "min": [
        -5.551115123125783e-17,
        -0.021725893020629883,
        0
      ],
      "sparse": {
        "count": 67,
        "indices": {
          "bufferView": 52,
          "componentType": 5123
        },
        "values": {
          "bufferView": 53
        }
      },
      "type": "VEC3"
    },
    {
      "bufferView": 32,
      "componentType": 5126,
      "count": 325,
      "type": "VEC3",
      "byteOffset": 0
    },
    {
      "componentType": 5126,
      "count": 325,
      "max": [
        2.9802322387695312e-8,
        0.0037974119186401367,
        2.9802322387695312e-8
      ],
      "min": [
        -1.4901161193847656e-8,
        -0.004823207855224609,
        -2.9802322387695312e-8
      ],
      "sparse": {
        "count": 232,
        "indices": {
          "bufferView": 55,
          "componentType": 5123
        },
        "values": {
          "bufferView": 56
        }
      },
      "type": "VEC3"
    },
    {
      "bufferView": 33,
      "componentType": 5126,
      "count": 325,
      "type": "VEC3",
      "byteOffset": 0
    },
    {
      "componentType": 5126,
      "count": 325,
      "max": [
        1.4901161193847656e-8,
        0.005741596221923828,
        2.9802322387695312e-8
      ],
      "min": [
        -1.4901161193847656e-8,
        -0.005496859550476074,
        -2.9802322387695312e-8
      ],
      "sparse": {
        "count": 103,
        "indices": {
          "bufferView": 58,
          "componentType": 5123
        },
        "values": {
          "bufferView": 59
        }
      },
      "type": "VEC3"
    },
    {
      "bufferView": 34,
      "componentType": 5126,
      "count": 325,
      "type": "VEC3",
      "byteOffset": 0
    },
    {
      "componentType": 5126,
      "count": 325,
      "max": [
        1.4901161193847656e-8,
        0.01384890079498291,
        2.9802322387695312e-8
      ],
      "min": [
        -1.4901161193847656e-8,
        -0.019372105598449707,
        -2.9802322387695312e-8
      ],
      "sparse": {
        "count": 138,
        "indices": {
          "bufferView": 61,
          "componentType": 5123
        },
        "values": {
          "bufferView": 62
        }
      },
      "type": "VEC3"
    },
    {
      "bufferView": 35,
      "componentType": 5126,
      "count": 325,
      "type": "VEC3",
      "byteOffset": 0
    },
    {
      "bufferView": 36,
      "componentType": 5126,
      "count": 325,
      "max": [
        0.021611541509628296,
        0.0013911724090576172,
        0.022147834300994873
      ],
      "min": [
        -0.02080356329679489,
        -0.02826058864593506,
        0
      ],
      "type": "VEC3",
      "byteOffset": 0
    },
    {
      "bufferView": 37,
      "componentType": 5126,
      "count": 325,
      "type": "VEC3",
      "byteOffset": 0
    },
    {
      "bufferView": 38,
      "componentType": 5126,
      "count": 325,
      "max": [
        0.04708312451839447,
        0.019869327545166016,
        0.03371170163154602
      ],
      "min": [
        -0.045762427151203156,
        -0.04549551010131836,
        0
      ],
      "type": "VEC3",
      "byteOffset": 0
    },
    {
      "bufferView": 39,
      "componentType": 5126,
      "count": 325,
      "type": "VEC3",
      "byteOffset": 0
    },
    {
      "bufferView": 40,
      "componentType": 5126,
      "count": 325,
      "max": [
        0.004967480897903442,
        0.009963035583496094,
        0.0002980530261993408
      ],
      "min": [
        -0.004967480897903442,
        -0.008607268333435059,
        -2.9802322387695312e-8
      ],
      "type": "VEC3",
      "byteOffset": 0
    },
    {
      "bufferView": 41,
      "componentType": 5126,
      "count": 325,
      "type": "VEC3",
      "byteOffset": 0
    },
    {
      "bufferView": 42,
      "componentType": 5126,
      "count": 325,
      "max": [
        0.02161155641078949,
        0.002982497215270996,
        0.022147834300994873
      ],
      "min": [
        -0.020803578197956085,
        -0.029287099838256836,
        0
      ],
      "type": "VEC3",
      "byteOffset": 0
    },
    {
      "bufferView": 43,
      "componentType": 5126,
      "count": 325,
      "type": "VEC3",
      "byteOffset": 0
    },
    {
      "componentType": 5126,
      "count": 325,
      "max": [
        0,
        0,
        0.009519457817077637
      ],
      "min": [
        -5.551115123125783e-17,
        -0.021725893020629883,
        0
      ],
      "sparse": {
        "count": 67,
        "indices": {
          "bufferView": 72,
          "componentType": 5123
        },
        "values": {
          "bufferView": 73
        }
      },
      "type": "VEC3"
    },
    {
      "bufferView": 44,
      "componentType": 5126,
      "count": 325,
      "type": "VEC3",
      "byteOffset": 0
    },
    {
      "bufferView": 45,
      "componentType": 5126,
      "count": 198,
      "max": [
        0.11107119917869568,
        1.5471116304397583,
        0.4071176052093506
      ],
      "min": [
        -0.11107119917869568,
        1.4154956340789795,
        0.3401099145412445
      ],
      "type": "VEC3",
      "byteOffset": 0
    },
    {
      "bufferView": 46,
      "componentType": 5126,
      "count": 198,
      "type": "VEC3",
      "byteOffset": 0
    },
    {
      "bufferView": 47,
      "componentType": 5126,
      "count": 198,
      "type": "VEC2",
      "byteOffset": 0
    },
    {
      "bufferView": 48,
      "componentType": 5121,
      "count": 198,
      "type": "VEC4",
      "byteOffset": 0
    },
    {
      "bufferView": 49,
      "componentType": 5126,
      "count": 198,
      "type": "VEC4",
      "byteOffset": 0
    },
    {
      "bufferView": 50,
      "componentType": 5123,
      "count": 336,
      "type": "SCALAR",
      "byteOffset": 0
    },
    {
      "componentType": 5126,
      "count": 198,
      "max": [
        0,
        0,
        0
      ],
      "min": [
        0,
        0,
        0
      ],
      "sparse": {
        "count": 1,
        "indices": {
          "bufferView": 81,
          "componentType": 5121
        },
        "values": {
          "bufferView": 82
        }
      },
      "type": "VEC3"
    },
    {
      "componentType": 5126,
      "count": 198,
      "sparse": {
        "count": 151,
        "indices": {
          "bufferView": 83,
          "componentType": 5121
        },
        "values": {
          "bufferView": 84
        }
      },
      "type": "VEC3"
    },
    {
      "componentType": 5126,
      "count": 198,
      "max": [
        0,
        0,
        0.00019353628158569336
      ],
      "min": [
        0,
        0,
        0
      ],
      "sparse": {
        "count": 24,
        "indices": {
          "bufferView": 85,
          "componentType": 5121
        },
        "values": {
          "bufferView": 86
        }
      },
      "type": "VEC3"
    },
    {
      "componentType": 5126,
      "count": 198,
      "sparse": {
        "count": 155,
        "indices": {
          "bufferView": 87,
          "componentType": 5121
        },
        "values": {
          "bufferView": 88
        }
      },
      "type": "VEC3"
    },
    {
      "componentType": 5126,
      "count": 198,
      "max": [
        0,
        0,
        0
      ],
      "min": [
        0,
        0,
        0
      ],
      "sparse": {
        "count": 1,
        "indices": {
          "bufferView": 89,
          "componentType": 5121
        },
        "values": {
          "bufferView": 90
        }
      },
      "type": "VEC3"
    },
    {
      "componentType": 5126,
      "count": 198,
      "sparse": {
        "count": 151,
        "indices": {
          "bufferView": 91,
          "componentType": 5121
        },
        "values": {
          "bufferView": 92
        }
      },
      "type": "VEC3"
    },
    {
      "componentType": 5126,
      "count": 198,
      "max": [
        1.6653345369377348e-16,
        0,
        0.010512113571166992
      ],
      "min": [
        -1.6653345369377348e-16,
        -0.015133857727050781,
        0
      ],
      "sparse": {
        "count": 101,
        "indices": {
          "bufferView": 93,
          "componentType": 5121
        },
        "values": {
          "bufferView": 94
        }
      },
      "type": "VEC3"
    },
    {
      "bufferView": 51,
      "componentType": 5126,
      "count": 198,
      "type": "VEC3",
      "byteOffset": 0
    },
    {
      "bufferView": 52,
      "componentType": 5126,
      "count": 198,
      "max": [
        1.4901161193847656e-8,
        0.01044929027557373,
        2.9802322387695312e-8
      ],
      "min": [
        -7.450580596923828e-9,
        -0.007747530937194824,
        0
      ],
      "type": "VEC3",
      "byteOffset": 0
    },
    {
      "bufferView": 53,
      "componentType": 5126,
      "count": 198,
      "type": "VEC3",
      "byteOffset": 0
    },
    {
      "bufferView": 54,
      "componentType": 5126,
      "count": 198,
      "max": [
        1.4901161193847656e-8,
        0.008716225624084473,
        2.9802322387695312e-8
      ],
      "min": [
        -7.450580596923828e-9,
        -0.013763904571533203,
        -2.9802322387695312e-8
      ],
      "type": "VEC3",
      "byteOffset": 0
    },
    {
      "bufferView": 55,
      "componentType": 5126,
      "count": 198,
      "type": "VEC3",
      "byteOffset": 0
    },
    {
      "bufferView": 56,
      "componentType": 5126,
      "count": 198,
      "max": [
        1.4901161193847656e-8,
        0.023202180862426758,
        2.9802322387695312e-8
      ],
      "min": [
        -7.450580596923828e-9,
        -0.03587698936462402,
        -2.9802322387695312e-8
      ],
      "type": "VEC3",
      "byteOffset": 0
    },
    {
      "bufferView": 57,
      "componentType": 5126,
      "count": 198,
      "type": "VEC3",
      "byteOffset": 0
    },
    {
      "bufferView": 58,
      "componentType": 5126,
      "count": 198,
      "max": [
        0.008909367024898529,
        0.009986281394958496,
        0.025125890970230103
      ],
      "min": [
        -0.00864691287279129,
        -0.034487128257751465,
        0
      ],
      "type": "VEC3",
      "byteOffset": 0
    },
    {
      "bufferView": 59,
      "componentType": 5126,
      "count": 198,
      "type": "VEC3",
      "byteOffset": 0
    },
    {
      "bufferView": 60,
      "componentType": 5126,
      "count": 198,
      "max": [
        0.029687784612178802,
        0.04874122142791748,
        0.034680187702178955
      ],
      "min": [
        -0.029667578637599945,
        -0.0704580545425415,
        0.00008973479270935059
      ],
      "type": "VEC3",
      "byteOffset": 0
    },
    {
      "bufferView": 61,
      "componentType": 5126,
      "count": 198,
      "type": "VEC3",
      "byteOffset": 0
    },
    {
      "componentType": 5126,
      "count": 198,
      "max": [
        7.450580596923828e-9,
        0.010611653327941895,
        0.003741025924682617
      ],
      "min": [
        -2.220446049250313e-16,
        -0.006490945816040039,
        0
      ],
      "sparse": {
        "count": 163,
        "indices": {
          "bufferView": 106,
          "componentType": 5121
        },
        "values": {
          "bufferView": 107
        }
      },
      "type": "VEC3"
    },
    {
      "bufferView": 62,
      "componentType": 5126,
      "count": 198,
      "type": "VEC3",
      "byteOffset": 0
    },
    {
      "bufferView": 63,
      "componentType": 5126,
      "count": 198,
      "max": [
        0.00890938937664032,
        0.014703869819641113,
        0.025125890970230103
      ],
      "min": [
        -0.008646935224533081,
        -0.0399320125579834,
        0
      ],
      "type": "VEC3",
      "byteOffset": 0
    },
    {
      "bufferView": 64,
      "componentType": 5126,
      "count": 198,
      "type": "VEC3",
      "byteOffset": 0
    },
    {
      "componentType": 5126,
      "count": 198,
      "max": [
        1.6653345369377348e-16,
        0,
        0.010512113571166992
      ],
      "min": [
        -1.6653345369377348e-16,
        -0.015133857727050781,
        0
      ],
      "sparse": {
        "count": 101,
        "indices": {
          "bufferView": 111,
          "componentType": 5121
        },
        "values": {
          "bufferView": 112
        }
      },
      "type": "VEC3"
    },
    {
      "bufferView": 65,
      "componentType": 5126,
      "count": 198,
      "type": "VEC3",
      "byteOffset": 0
    },
    {
      "bufferView": 66,
      "componentType": 5126,
      "count": 75,
      "type": "MAT4",
      "byteOffset": 0
    }
  ],
  "bufferViews": [
    {
      "buffer": 0,
      "byteLength": 25176,
      "byteOffset": 0,
      "target": 34962,
      "byteStride": 12
    },
    {
      "buffer": 0,
      "byteLength": 25176,
      "byteOffset": 25176,
      "target": 34962,
      "byteStride": 12
    },
    {
      "buffer": 0,
      "byteLength": 16784,
      "byteOffset": 50352,
      "target": 34962,
      "byteStride": 8
    },
    {
      "buffer": 0,
      "byteLength": 8392,
      "byteOffset": 67136,
      "target": 34962,
      "byteStride": 4
    },
    {
      "buffer": 0,
      "byteLength": 33568,
      "byteOffset": 75528,
      "target": 34962,
      "byteStride": 16
    },
    {
      "buffer": 0,
      "byteLength": 24024,
      "byteOffset": 109096,
      "target": 34963
    },
    {
      "buffer": 0,
      "byteLength": 25176,
      "byteOffset": 133120,
      "target": 34962,
      "byteStride": 12
    },
    {
      "buffer": 0,
      "byteLength": 25176,
      "byteOffset": 158296,
      "target": 34962,
      "byteStride": 12
    },
    {
      "buffer": 0,
      "byteLength": 25176,
      "byteOffset": 183472,
      "target": 34962,
      "byteStride": 12
    },
    {
      "buffer": 0,
      "byteLength": 25176,
      "byteOffset": 208648,
      "target": 34962,
      "byteStride": 12
    },
    {
      "buffer": 0,
      "byteLength": 25176,
      "byteOffset": 233824,
      "target": 34962,
      "byteStride": 12
    },
    {
      "buffer": 0,
      "byteLength": 25176,
      "byteOffset": 259000,
      "target": 34962,
      "byteStride": 12
    },
    {
      "buffer": 0,
      "byteLength": 25176,
      "byteOffset": 284176,
      "target": 34962,
      "byteStride": 12
    },
    {
      "buffer": 0,
      "byteLength": 25176,
      "byteOffset": 309352,
      "target": 34962,
      "byteStride": 12
    },
    {
      "buffer": 0,
      "byteLength": 25176,
      "byteOffset": 334528,
      "target": 34962,
      "byteStride": 12
    },
    {
      "buffer": 0,
      "byteLength": 25176,
      "byteOffset": 359704,
      "target": 34962,
      "byteStride": 12
    },
    {
      "buffer": 0,
      "byteLength": 25176,
      "byteOffset": 384880,
      "target": 34962,
      "byteStride": 12
    },
    {
      "buffer": 0,
      "byteLength": 25176,
      "byteOffset": 410056,
      "target": 34962,
      "byteStride": 12
    },
    {
      "buffer": 0,
      "byteLength": 25176,
      "byteOffset": 435232,
      "target": 34962,
      "byteStride": 12
    },
    {
      "buffer": 0,
      "byteLength": 25176,
      "byteOffset": 460408,
      "target": 34962,
      "byteStride": 12
    },
    {
      "buffer": 0,
      "byteLength": 25176,
      "byteOffset": 485584,
      "target": 34962,
      "byteStride": 12
    },
    {
      "buffer": 0,
      "byteLength": 3900,
      "byteOffset": 510760,
      "target": 34962,
      "byteStride": 12
    },
    {
      "buffer": 0,
      "byteLength": 3900,
      "byteOffset": 514664,
      "target": 34962,
      "byteStride": 12
    },
    {
      "buffer": 0,
      "byteLength": 2600,
      "byteOffset": 518568,
      "target": 34962,
      "byteStride": 8
    },
    {
      "buffer": 0,
      "byteLength": 1300,
      "byteOffset": 521168,
      "target": 34962,
      "byteStride": 4
    },
    {
      "buffer": 0,
      "byteLength": 5200,
      "byteOffset": 522472,
      "target": 34962,
      "byteStride": 16
    },
    {
      "buffer": 0,
      "byteLength": 3672,
      "byteOffset": 527672,
      "target": 34963
    },
    {
      "buffer": 0,
      "byteLength": 3900,
      "byteOffset": 531344,
      "target": 34962,
      "byteStride": 12
    },
    {
      "buffer": 0,
      "byteLength": 3900,
      "byteOffset": 535248,
      "target": 34962,
      "byteStride": 12
    },
    {
      "buffer": 0,
      "byteLength": 3900,
      "byteOffset": 539152,
      "target": 34962,
      "byteStride": 12
    },
    {
      "buffer": 0,
      "byteLength": 3900,
      "byteOffset": 543056,
      "target": 34962,
      "byteStride": 12
    },
    {
      "buffer": 0,
      "byteLength": 3900,
      "byteOffset": 546960,
      "target": 34962,
      "byteStride": 12
    },
    {
      "buffer": 0,
      "byteLength": 3900,
      "byteOffset": 550864,
      "target": 34962,
      "byteStride": 12
    },
    {
      "buffer": 0,
      "byteLength": 3900,
      "byteOffset": 554768,
      "target": 34962,
      "byteStride": 12
    },
    {
      "buffer": 0,
      "byteLength": 3900,
      "byteOffset": 558672,
      "target": 34962,
      "byteStride": 12
    },
    {
      "buffer": 0,
      "byteLength": 3900,
      "byteOffset": 562576,
      "target": 34962,
      "byteStride": 12
    },
    {
      "buffer": 0,
      "byteLength": 3900,
      "byteOffset": 566480,
      "target": 34962,
      "byteStride": 12
    },
    {
      "buffer": 0,
      "byteLength": 3900,
      "byteOffset": 570384,
      "target": 34962,
      "byteStride": 12
    },
    {
      "buffer": 0,
      "byteLength": 3900,
      "byteOffset": 574288,
      "target": 34962,
      "byteStride": 12
    },
    {
      "buffer": 0,
      "byteLength": 3900,
      "byteOffset": 578192,
      "target": 34962,
      "byteStride": 12
    },
    {
      "buffer": 0,
      "byteLength": 3900,
      "byteOffset": 582096,
      "target": 34962,
      "byteStride": 12
    },
    {
      "buffer": 0,
      "byteLength": 3900,
      "byteOffset": 586000,
      "target": 34962,
      "byteStride": 12
    },
    {
      "buffer": 0,
      "byteLength": 3900,
      "byteOffset": 589904,
      "target": 34962,
      "byteStride": 12
    },
    {
      "buffer": 0,
      "byteLength": 3900,
      "byteOffset": 593808,
      "target": 34962,
      "byteStride": 12
    },
    {
      "buffer": 0,
      "byteLength": 3900,
      "byteOffset": 597712,
      "target": 34962,
      "byteStride": 12
    },
    {
      "buffer": 0,
      "byteLength": 2376,
      "byteOffset": 601616,
      "target": 34962,
      "byteStride": 12
    },
    {
      "buffer": 0,
      "byteLength": 2376,
      "byteOffset": 603992,
      "target": 34962,
      "byteStride": 12
    },
    {
      "buffer": 0,
      "byteLength": 1584,
      "byteOffset": 606368,
      "target": 34962,
      "byteStride": 8
    },
    {
      "buffer": 0,
      "byteLength": 792,
      "byteOffset": 607952,
      "target": 34962,
      "byteStride": 4
    },
    {
      "buffer": 0,
      "byteLength": 3168,
      "byteOffset": 608744,
      "target": 34962,
      "byteStride": 16
    },
    {
      "buffer": 0,
      "byteLength": 672,
      "byteOffset": 611912,
      "target": 34963
    },
    {
      "buffer": 0,
      "byteLength": 2376,
      "byteOffset": 612584,
      "target": 34962,
      "byteStride": 12
    },
    {
      "buffer": 0,
      "byteLength": 2376,
      "byteOffset": 614960,
      "target": 34962,
      "byteStride": 12
    },
    {
      "buffer": 0,
      "byteLength": 2376,
      "byteOffset": 617336,
      "target": 34962,
      "byteStride": 12
    },
    {
      "buffer": 0,
      "byteLength": 2376,
      "byteOffset": 619712,
      "target": 34962,
      "byteStride": 12
    },
    {
      "buffer": 0,
      "byteLength": 2376,
      "byteOffset": 622088,
      "target": 34962,
      "byteStride": 12
    },
    {
      "buffer": 0,
      "byteLength": 2376,
      "byteOffset": 624464,
      "target": 34962,
      "byteStride": 12
    },
    {
      "buffer": 0,
      "byteLength": 2376,
      "byteOffset": 626840,
      "target": 34962,
      "byteStride": 12
    },
    {
      "buffer": 0,
      "byteLength": 2376,
      "byteOffset": 629216,
      "target": 34962,
      "byteStride": 12
    },
    {
      "buffer": 0,
      "byteLength": 2376,
      "byteOffset": 631592,
      "target": 34962,
      "byteStride": 12
    },
    {
      "buffer": 0,
      "byteLength": 2376,
      "byteOffset": 633968,
      "target": 34962,
      "byteStride": 12
    },
    {
      "buffer": 0,
      "byteLength": 2376,
      "byteOffset": 636344,
      "target": 34962,
      "byteStride": 12
    },
    {
      "buffer": 0,
      "byteLength": 2376,
      "byteOffset": 638720,
      "target": 34962,
      "byteStride": 12
    },
    {
      "buffer": 0,
      "byteLength": 2376,
      "byteOffset": 641096,
      "target": 34962,
      "byteStride": 12
    },
    {
      "buffer": 0,
      "byteLength": 2376,
      "byteOffset": 643472,
      "target": 34962,
      "byteStride": 12
    },
    {
      "buffer": 0,
      "byteLength": 2376,
      "byteOffset": 645848,
      "target": 34962,
      "byteStride": 12
    },
    {
      "buffer": 0,
      "byteLength": 4800,
      "byteOffset": 648224
    }
  ],
  "buffers": [
    {
      "name": "head",
      "byteLength": 653024,
      "uri": "data:application/octet-stream;base64,"
    }
  ]
}
